<mxfile host="app.diagrams.net" modified="2023-08-28T20:31:59.296Z" agent="Mozilla/5.0 (Macintosh; Intel Mac OS X 10_15_7) AppleWebKit/537.36 (KHTML, like Gecko) Chrome/116.0.0.0 Safari/537.36" version="21.6.9" etag="e4IVnTPCze3dj0WmGwOK" type="github">
  <diagram name="Page-1" id="f5x9o0wUoaMygUHpIHG0">
    <mxGraphModel>
      <root>
        <mxCell id="0" />
        <mxCell id="1" parent="0" />
      </root>
    </mxGraphModel>
  </diagram>
</mxfile>
